<?xml version="1.0" standalone="no"?>
<!DOCTYPE svg PUBLIC "-//W3C//DTD SVG 20010904//EN"
 "http://www.w3.org/TR/2001/REC-SVG-20010904/DTD/svg10.dtd">
<svg version="1.0" xmlns="http://www.w3.org/2000/svg"
 width="283.000000pt" height="296.000000pt" viewBox="0 0 283.000000 296.000000"
 preserveAspectRatio="xMidYMid meet">

<g transform="translate(0.000000,296.000000) scale(0.100000,-0.100000)"
fill="#000000" stroke="none">
<path d="M1375 2510 c-3 -5 -3 -10 0 -10 4 0 -4 -15 -17 -32 l-23 -33 29 23
c16 12 35 22 42 22 7 0 65 -51 129 -113 63 -62 112 -104 109 -93 -6 19 34 -16
229 -206 33 -31 56 -61 52 -67 -3 -6 -1 -11 4 -11 24 0 7 -24 -60 -88 -39 -37
-154 -149 -255 -249 -139 -138 -191 -183 -209 -183 -27 0 -30 -6 -15 -30 8
-13 13 -13 37 0 15 9 33 26 39 38 6 13 14 23 18 23 13 -2 343 322 420 411 46
54 56 70 48 85 -20 37 -372 374 -384 367 -6 -4 -8 -3 -5 3 7 10 -30 51 -48 53
-18 3 -30 14 -65 58 -32 40 -62 53 -75 32z"/>
<path d="M1258 2376 c-35 -30 -105 -100 -157 -156 -60 -64 -99 -99 -108 -96
-8 3 -11 1 -8 -4 3 -6 -2 -13 -12 -17 -10 -3 -43 -26 -74 -50 -48 -38 -55 -47
-51 -70 3 -16 30 -51 63 -83 31 -30 101 -97 154 -149 53 -51 99 -90 102 -87 4
3 -56 69 -132 146 -76 76 -143 147 -148 156 -7 13 35 59 219 240 126 122 226
223 222 223 -3 1 -35 -23 -70 -53z m-343 -345 c-3 -6 -15 -16 -26 -22 -18 -9
-19 -9 -10 9 10 19 32 33 40 26 1 -1 0 -7 -4 -13z"/>
<path d="M622 1829 c-274 -262 -492 -483 -492 -500 0 -11 86 -103 218 -231
119 -117 249 -245 287 -285 39 -40 75 -73 81 -73 11 0 34 22 382 363 122 120
222 222 222 226 0 9 -565 569 -588 584 -8 6 -44 -22 -110 -84z m125 -37 c34
-21 463 -457 461 -467 -5 -18 -475 -475 -489 -475 -7 0 -89 76 -183 169 -94
93 -197 193 -229 222 -72 65 -82 83 -65 107 7 9 113 115 234 235 212 208 239
229 271 209z"/>
<path d="M2033 1858 c-16 -18 -146 -147 -289 -286 l-259 -253 25 -20 c14 -12
147 -142 297 -291 250 -249 273 -269 291 -257 10 8 147 139 303 292 l284 278
-171 167 c-94 92 -226 220 -292 285 -70 69 -128 117 -139 117 -11 0 -33 -15
-50 -32z m316 -290 c130 -128 237 -235 239 -240 2 -4 0 -13 -5 -21 -17 -28
-483 -477 -496 -477 -7 0 -125 109 -261 243 -195 191 -247 247 -240 259 5 8
97 99 204 201 107 101 213 203 235 226 24 26 48 41 63 41 18 0 85 -60 261
-232z"/>
<path d="M1369 1231 c-51 -40 -109 -101 -109 -113 0 -21 106 -128 126 -128 11
0 49 29 84 65 l64 65 -44 46 c-25 25 -57 54 -71 65 -26 18 -27 18 -50 0z"/>
</g>
</svg>
